<svg width="923" height="923" viewBox="0 0 923 923" fill="none" xmlns="http://www.w3.org/2000/svg">
<path d="M253.912 396.808L85.7068 463.723L253.912 530.639V582.888L21.0829 490.765V436.682L253.912 344.101V396.808ZM668.646 530.639L836.851 463.723L668.646 396.808V344.101L901.475 436.682V490.765L668.646 582.888V530.639Z" fill="white"/>
<path d="M533.649 253.912L466.734 85.7068L399.818 253.912L347.569 253.912L439.692 21.0829L493.775 21.0829L586.356 253.912L533.649 253.912ZM399.818 668.646L466.734 836.851L533.649 668.646L586.356 668.646L493.775 901.475L439.692 901.475L347.569 668.646L399.818 668.646Z" fill="white"/>
<path d="M398.665 515.377C398.665 526.377 400.651 535.696 404.623 543.335C408.596 550.974 413.79 557.237 420.206 562.126C426.929 566.709 434.72 570.223 443.581 572.668C452.442 574.806 461.608 575.876 471.081 575.876C477.497 575.876 484.372 575.418 491.705 574.501C499.038 573.279 505.913 571.14 512.33 568.084C518.746 565.029 524.093 560.904 528.371 555.71C532.649 550.21 534.788 543.335 534.788 535.085C534.788 526.224 531.885 519.044 526.08 513.544C520.58 508.044 513.246 503.461 504.08 499.794C494.913 496.127 484.525 492.919 472.914 490.169C461.303 487.419 449.539 484.364 437.623 481.003C425.401 477.947 413.484 474.281 401.873 470.003C390.263 465.42 379.874 459.614 370.707 452.586C361.541 445.559 354.055 436.851 348.249 426.462C342.75 415.768 340 402.935 340 387.963C340 371.157 343.513 356.644 350.541 344.422C357.874 331.894 367.346 321.506 378.957 313.256C390.568 305.006 403.707 298.895 418.373 294.923C433.04 290.951 447.706 288.964 462.372 288.964C479.483 288.964 495.83 290.951 511.413 294.923C527.302 298.589 541.357 304.7 553.579 313.256C565.801 321.811 575.426 332.811 582.453 346.255C589.787 359.394 593.453 375.435 593.453 394.379H523.788C523.177 384.602 521.038 376.505 517.371 370.088C514.01 363.671 509.427 358.63 503.622 354.963C497.816 351.297 491.094 348.699 483.455 347.172C476.122 345.644 468.025 344.88 459.164 344.88C453.359 344.88 447.553 345.491 441.748 346.713C435.942 347.936 430.595 350.074 425.706 353.13C421.123 356.185 417.304 360.005 414.248 364.588C411.193 369.171 409.665 374.977 409.665 382.004C409.665 388.421 410.887 393.615 413.332 397.587C415.776 401.56 420.512 405.226 427.54 408.587C434.873 411.948 444.803 415.309 457.331 418.67C470.164 422.031 486.816 426.309 507.288 431.504C513.399 432.726 521.802 435.017 532.496 438.378C543.496 441.434 554.343 446.475 565.037 453.503C575.731 460.531 584.898 470.003 592.537 481.919C600.481 493.53 604.453 508.502 604.453 526.835C604.453 541.807 601.55 555.71 595.745 568.543C589.939 581.376 581.231 592.528 569.62 602C558.315 611.167 544.107 618.347 526.996 623.542C510.191 628.736 490.636 631.333 468.331 631.333C450.303 631.333 432.734 629.042 415.623 624.458C398.818 620.181 383.846 613.306 370.707 603.834C357.874 594.362 347.638 582.292 340 567.626C332.361 552.96 328.694 535.543 329 515.377H398.665Z" fill="#D9D9D9"/>
</svg>
